<?xml version="1.0" standalone="no"?>
<!DOCTYPE svg PUBLIC "-//W3C//DTD SVG 20010904//EN"
 "http://www.w3.org/TR/2001/REC-SVG-20010904/DTD/svg10.dtd">
<svg version="1.0" xmlns="http://www.w3.org/2000/svg"
 width="1024.000000pt" height="1024.000000pt" viewBox="0 0 1024.000000 1024.000000"
 preserveAspectRatio="xMidYMid meet">
<metadata>
Created by potrace 1.14, written by Peter Selinger 2001-2017
</metadata>
<g transform="translate(0.000000,1024.000000) scale(0.100000,-0.100000)"
fill="#000000" stroke="none">
<path d="M6288 9925 c-1 -2 -41 -6 -88 -9 -138 -9 -231 -26 -392 -71 -52 -14
-212 -72 -263 -94 -109 -49 -235 -113 -310 -159 -75 -46 -250 -170 -292 -207
-119 -105 -181 -165 -245 -235 -108 -118 -122 -135 -176 -215 -26 -38 -49 -72
-52 -75 -15 -14 -150 -254 -179 -320 -19 -41 -35 -77 -37 -79 -6 -7 -76 72
-108 122 -74 117 -101 244 -82 391 l8 59 -49 -28 c-202 -117 -362 -272 -438
-424 -15 -30 -52 -120 -82 -200 -106 -283 -175 -404 -302 -523 -91 -86 -169
-128 -329 -177 -133 -41 -373 -131 -435 -162 -13 -7 -19 -5 -23 8 -4 10 -35
92 -69 183 -57 149 -180 473 -242 640 -13 36 -33 92 -44 125 -31 91 -89 246
-105 282 -8 17 -14 34 -14 37 0 4 -7 23 -17 44 -9 20 -17 39 -18 42 -1 3 -9
23 -19 45 -9 22 -25 58 -34 80 -67 160 -227 440 -301 530 -59 71 -154 153
-208 181 -78 39 -173 41 -248 4 -44 -21 -143 -109 -185 -165 -55 -72 -140
-236 -207 -398 -44 -107 -131 -346 -138 -377 -4 -22 -84 -270 -95 -296 -22
-54 -163 -535 -185 -629 -2 -11 -16 -69 -31 -130 -14 -60 -27 -117 -29 -125
-29 -124 -88 -435 -109 -575 -2 -16 -9 -59 -15 -95 -13 -83 -21 -143 -25 -183
-2 -18 -9 -77 -15 -132 -19 -169 -20 -177 -26 -265 -3 -47 -8 -98 -10 -115
-25 -192 -25 -1382 0 -1915 14 -303 18 -356 30 -477 3 -29 7 -79 11 -110 3
-32 7 -71 9 -88 2 -16 7 -52 10 -80 5 -42 23 -152 40 -254 52 -306 170 -656
309 -921 68 -131 220 -364 288 -442 13 -14 48 -56 78 -92 63 -75 297 -307 384
-381 32 -28 64 -54 70 -60 6 -5 34 -28 61 -50 28 -22 55 -43 60 -48 93 -77
371 -266 492 -334 436 -244 817 -381 1368 -492 165 -33 529 -96 614 -106 30
-4 63 -8 73 -10 11 -2 49 -7 86 -10 37 -4 81 -8 97 -11 27 -3 90 -8 250 -20
288 -21 1270 -20 1534 1 31 2 94 7 141 10 47 3 96 8 110 10 14 2 55 7 91 10
36 3 76 7 90 10 13 2 47 6 74 10 28 3 91 13 140 21 90 15 117 20 178 29 17 3
66 12 107 20 41 8 91 17 110 20 39 7 171 35 305 66 272 64 655 193 797 270 10
5 25 9 33 9 8 0 15 5 15 10 0 6 9 10 20 10 11 0 20 5 20 10 0 6 6 10 13 10 15
0 184 89 282 148 143 85 422 281 512 358 274 236 398 356 540 524 69 82 180
232 220 296 199 319 350 705 416 1064 19 102 34 190 43 249 4 25 8 55 10 66 2
10 6 47 10 81 3 33 7 74 9 90 4 30 12 117 20 214 4 50 10 154 20 350 25 497
25 1662 0 1935 -2 22 -6 77 -10 121 -3 45 -8 93 -10 105 -2 13 -6 58 -10 99
-12 132 -15 153 -29 255 -8 55 -17 120 -20 145 -4 25 -8 56 -11 70 -2 14 -11
66 -20 115 -20 116 -23 136 -40 220 -8 39 -16 81 -19 95 -10 55 -67 302 -95
410 -106 411 -339 1126 -443 1360 -117 264 -242 431 -364 487 -114 52 -228 28
-347 -75 -55 -48 -177 -199 -198 -246 -7 -14 -16 -26 -21 -26 -4 0 -8 -6 -8
-14 0 -8 -6 -21 -12 -28 -39 -42 -133 -239 -267 -563 -10 -24 -44 -116 -150
-410 -103 -285 -310 -828 -320 -838 -4 -4 -39 6 -77 22 -75 32 -334 127 -424
156 -30 10 -59 21 -65 26 -5 5 -15 9 -22 9 -25 0 -289 103 -383 150 -318 157
-482 350 -546 643 -21 96 -26 301 -9 402 50 308 223 564 469 694 95 50 248 99
324 104 25 1 10 13 -51 40 -87 40 -278 102 -372 121 -124 24 -133 26 -245 32
-58 3 -110 7 -117 9 -6 2 -13 2 -15 0z m-3448 -4789 c83 -15 99 -19 174 -42
213 -67 396 -184 605 -384 47 -45 146 -164 188 -225 141 -208 232 -468 260
-745 19 -182 -1 -489 -42 -667 -27 -116 -113 -271 -179 -324 -12 -9 -32 -27
-46 -38 -39 -35 -159 -89 -245 -112 -107 -27 -408 -30 -495 -4 -8 2 -31 6 -50
9 -19 2 -55 9 -80 15 -25 5 -56 12 -70 15 -54 10 -266 67 -338 91 -192 64
-401 191 -544 331 -74 72 -217 257 -267 344 -18 30 -36 62 -41 70 -14 24 -60
129 -77 174 -38 106 -54 196 -60 327 -5 116 -3 150 16 237 62 289 215 526 456
706 162 121 362 203 542 222 32 4 59 7 61 9 5 4 198 -3 232 -9z m4891 -1 c246
-43 470 -165 650 -351 121 -126 198 -246 256 -399 27 -72 38 -110 59 -210 13
-64 12 -261 -3 -340 -27 -147 -96 -321 -185 -465 -56 -90 -170 -233 -247 -310
-196 -195 -419 -310 -776 -399 -75 -19 -95 -23 -162 -36 -16 -3 -35 -8 -43
-10 -8 -2 -37 -7 -65 -11 -27 -3 -52 -8 -55 -9 -9 -5 -161 -18 -230 -19 -288
-5 -512 99 -635 294 -31 49 -80 176 -89 230 -3 19 -7 44 -10 55 -35 180 -41
561 -11 700 3 11 7 31 9 45 21 129 126 426 156 445 6 3 10 13 10 21 0 36 140
224 245 330 253 253 491 390 767 439 96 17 264 17 359 0z"/>
</g>
</svg>
